<svg xmlns="http://www.w3.org/2000/svg"  viewBox="0 0 50 50" width="50px" height="50px"><path d="M 24.925781 2 C 12.242781 2 1.9257812 12.318 1.9257812 25 C 1.9257812 37.682 12.242781 48 24.925781 48 C 25.322125 48 25.715942 47.990613 26.107422 47.970703 C 29.239042 47.811426 32.207903 47.022191 34.888672 45.728516 C 36.228589 45.08191 37.497046 44.307263 38.677734 43.423828 C 39.268267 42.981912 39.837935 42.512917 40.382812 42.017578 C 45.014159 37.807199 47.925781 31.737313 47.925781 25 C 47.925781 17.866904 44.661893 11.479835 39.548828 7.2578125 C 39.548433 7.2574861 39.54727 7.2581388 39.546875 7.2578125 C 39.263175 7.0235825 38.974528 6.7968416 38.679688 6.5761719 C 38.679263 6.5758545 38.678158 6.5764892 38.677734 6.5761719 C 34.839269 3.7037186 30.077844 2 24.925781 2 z M 24.443359 4.0117188 C 24.933846 4.0101835 25.470364 4.0134705 26.048828 4.03125 C 37.108171 4.6164509 45.925781 13.796498 45.925781 25 C 45.925781 27.76746 45.383263 30.408448 44.40625 32.830078 C 44.285518 33.107188 44.164627 33.379969 44.041016 33.646484 C 43.885328 33.989225 43.724064 34.329454 43.550781 34.662109 C 43.486137 34.791181 43.418685 34.932288 43.357422 35.050781 C 42.637159 36.366405 41.769429 37.584731 40.794922 38.710938 C 40.898664 38.393231 41.211167 37.418392 41.351562 36.482422 C 41.516562 35.381422 41.213047 33.235406 40.498047 31.941406 C 39.782047 30.648406 37.995563 28.251703 35.601562 27.095703 C 33.207563 25.939703 30.756437 26.216844 27.398438 26.464844 C 24.041438 26.712844 21.703688 26.681484 19.804688 26.021484 C 17.905687 25.360484 17.161125 23.240031 17.078125 22.332031 C 16.995125 21.424031 17.218516 21.015812 17.603516 20.382812 C 17.988516 19.749813 17.686484 19.584297 17.521484 19.529297 C 17.356484 19.474297 17.162422 19.088734 17.107422 18.427734 C 17.052422 17.767734 17.160156 16.640625 17.160156 16.640625 C 17.160156 16.640625 17.382188 17.078109 17.492188 18.537109 C 17.602187 19.996109 19.445125 20.517578 20.078125 20.517578 C 20.711125 20.517578 21.868844 20.601625 23.464844 19.390625 C 25.060844 18.179625 26.571766 19.419328 27.259766 19.611328 C 27.947766 19.804328 29.927688 21.204125 31.304688 22.828125 C 32.680687 24.452125 33.178609 24.012047 34.224609 24.123047 C 35.270609 24.233047 35.189391 24.564797 36.400391 24.591797 C 37.611391 24.619797 38.298828 23.546875 38.298828 23.546875 C 38.298828 23.546875 39.093484 27.039625 39.396484 28.140625 C 39.699484 29.241625 41.187906 31.748078 43.003906 31.830078 C 44.819906 31.913078 45.09375 30.013672 45.09375 30.013672 C 45.09375 30.013672 44.296312 30.890594 43.195312 30.808594 C 42.094312 30.726594 41.626953 29.599609 41.626953 29.599609 C 41.626953 29.599609 42.700937 29.931641 43.085938 29.931641 C 43.470937 29.931641 44.241688 29.683156 44.929688 29.160156 C 45.617688 28.637156 46.278422 26.459828 45.232422 25.798828 C 44.186422 25.138828 43.552734 25.525391 43.552734 25.525391 C 43.552734 25.525391 43.882234 25.611719 44.240234 25.886719 C 44.598234 26.161719 44.736328 26.213406 44.736328 27.066406 C 44.736328 27.919406 44.488344 28.800125 43.277344 28.828125 C 42.066344 28.856125 41.049375 28.361078 40.609375 27.205078 C 40.169375 26.049078 39.86675 24.758813 39.34375 23.382812 C 38.82075 22.006812 37.638672 21.152344 37.638672 21.152344 C 37.638672 21.152344 37.882 21.175781 38.625 21.175781 C 39.368 21.175781 39.289062 22.419922 39.289062 22.419922 C 39.289062 22.419922 39.920281 22.252859 40.113281 22.005859 C 40.306281 21.758859 40.195313 20.820312 40.195312 20.820312 C 40.195312 20.820312 40.387734 20.902578 40.552734 20.517578 C 40.717734 20.132578 40.087672 19.996953 40.638672 19.501953 C 41.188672 19.006953 40.968672 19.116406 40.638672 18.566406 C 40.308672 18.016406 40.473438 18.287109 41.023438 18.287109 C 41.573437 18.287109 41.516406 18.12475 40.691406 16.96875 C 39.865406 15.81275 39.204297 16.199922 38.654297 16.419922 C 38.104297 16.639922 37.16975 16.200766 36.34375 15.759766 C 35.51775 15.318766 35.630766 15.318047 35.134766 15.373047 C 34.639766 15.428047 34.14375 15.316641 33.59375 14.931641 C 33.04375 14.546641 33.314906 14.768656 32.378906 13.722656 C 31.442906 12.676656 33.978516 12.787109 33.978516 12.787109 C 33.978516 12.787109 33.646234 11.298969 32.490234 10.417969 C 31.334234 9.5369687 29.851563 9.8691406 29.851562 9.8691406 C 29.851562 9.8691406 29.683516 8.7108594 29.353516 8.3808594 C 29.023516 8.0508594 28.195766 7.9941406 27.259766 7.9941406 L 25.279297 7.9941406 C 23.903297 7.9941406 24.508203 7.667875 24.783203 7.171875 C 25.058203 6.675875 24.234906 6.674375 23.628906 7.609375 C 23.023906 8.545375 22.639531 7.7235781 22.144531 7.3925781 C 21.649531 7.0625781 21.700219 7.8861562 20.324219 6.7851562 C 18.948219 5.6841563 20.324469 4.4205469 21.480469 4.3105469 C 22.636469 4.2005469 22.857422 5.5722656 22.857422 5.5722656 C 22.857422 5.5722656 23.244125 4.8596094 23.078125 4.4746094 C 22.989279 4.2673017 22.923098 4.1612457 22.875 4.1015625 C 23.391964 4.0512264 23.916233 4.0237109 24.443359 4.0117188 z M 18.396484 5.0800781 C 18.396484 5.0800781 17.905781 6.1241563 18.675781 6.7851562 C 19.446781 7.4461562 20.105469 7.9941406 20.105469 7.9941406 C 20.105469 7.9941406 18.0685 7.6116406 17.1875 7.5566406 C 16.3085 7.5016406 15.205547 7.3357813 15.810547 6.6757812 C 16.415547 6.0157812 16.472734 5.9570312 16.802734 5.9570312 C 17.132734 5.9570312 17.794922 6.3417969 17.794922 6.3417969 C 17.794922 6.3417969 17.847953 5.7916406 17.626953 5.6816406 C 17.428044 5.5821858 17.225943 5.5040125 17.181641 5.4863281 C 17.310547 5.4349838 17.438219 5.3808773 17.568359 5.3320312 L 18.396484 5.0800781 z M 14.326172 6.9492188 C 14.326172 6.9492188 14.160094 7.8835312 15.371094 8.2695312 C 16.582094 8.6545312 17.462891 9.0390625 17.462891 9.0390625 C 17.462891 9.0390625 13.773187 9.0971875 12.617188 9.8671875 C 11.461187 10.638188 10.582953 11.352031 10.251953 11.957031 C 9.9219531 12.562031 9.4807031 13.610703 9.0957031 13.720703 C 8.7107031 13.830703 8.4342188 13.997641 8.3242188 13.556641 C 8.2604445 13.299551 8.0466486 13.043422 7.8789062 13.070312 C 8.4279062 12.296312 9.0411875 11.548078 9.8671875 10.580078 C 11.793188 8.3230781 14.326172 6.9492188 14.326172 6.9492188 z M 25.732422 11.632812 C 25.796422 11.627812 25.858781 11.629813 25.925781 11.632812 C 26.998781 11.673813 26.973172 12.041437 27.826172 12.523438 C 28.679172 13.005437 29.257813 13.419922 29.257812 13.419922 C 29.257812 13.419922 28.292141 13.624906 27.494141 13.253906 C 26.696141 12.881906 26.063062 12.580078 25.664062 12.580078 C 25.265062 12.580078 24.191406 12.619141 24.191406 12.619141 C 24.191406 12.619141 24.775422 11.711812 25.732422 11.632812 z M 7.875 13.072266 C 7.8155345 13.1566 7.7577099 13.24482 7.6992188 13.330078 C 7.6802187 13.417078 7.6640625 13.522109 7.6640625 13.662109 C 7.6640625 14.653109 8.546875 15.373047 8.546875 15.373047 C 8.546875 15.373047 7.6102969 16.414859 7.2792969 17.130859 C 6.9492969 17.846859 6.5605469 20.380266 6.5605469 22.197266 C 6.5605469 24.014266 6.4517188 25.938281 6.0117188 26.488281 C 5.5717187 27.038281 5.6812344 27.317734 5.2402344 27.427734 L 4.359375 27.644531 C 4.359375 27.644531 5.0770469 28.525391 6.1230469 28.525391 C 7.1690469 28.525391 7.9921875 27.427734 7.9921875 27.427734 C 7.9921875 27.427734 8.5424375 29.130406 9.1484375 30.066406 C 9.7534375 31.002406 10.746094 32.542969 10.746094 32.542969 C 10.746094 32.542969 10.636094 34.250875 10.746094 35.296875 C 10.856094 36.342875 10.636469 37.443891 9.4804688 36.837891 C 8.3244688 36.231891 8.3803906 36.999781 9.1503906 37.550781 C 9.9213906 38.100781 10.858531 38.271078 11.519531 37.830078 C 12.179531 37.390078 12.343125 36.724766 12.453125 36.009766 C 12.563125 35.293766 12.511484 35.243437 12.896484 35.023438 C 13.281484 34.803438 14.214531 35.408453 14.269531 36.564453 C 14.324531 37.720453 14.436563 37.664141 14.601562 37.994141 C 14.766562 38.324141 14.7125 38.542359 14.4375 38.818359 C 14.1625 39.094359 14.436953 39.535063 14.876953 39.039062 C 15.316953 38.544063 15.53875 38.322813 15.59375 37.882812 C 15.64875 37.442813 15.921875 37.058594 15.921875 37.058594 C 15.921875 37.058594 17.188375 37.605156 18.234375 37.660156 C 19.280375 37.715156 21.097344 38.82025 21.152344 40.03125 C 21.206344 41.24225 20.159422 41.682031 18.232422 41.957031 C 16.306422 42.232031 13.998953 41.848109 12.126953 40.912109 C 10.748445 40.222856 8.5953319 38.364582 7.0488281 35.962891 C 6.975335 35.84349 6.9012337 35.724475 6.8300781 35.603516 C 6.6333827 35.27807 6.4430599 34.947718 6.2734375 34.605469 C 6.2555515 34.57088 6.2403552 34.5347 6.2226562 34.5 C 6.0184718 34.078324 5.8332678 33.646785 5.6816406 33.205078 C 4.4156406 29.517078 4.0328906 26.765062 4.0878906 25.664062 C 4.1428906 24.563062 4.1956406 19.939109 5.6816406 16.912109 C 6.4606406 15.326109 7.0442187 14.287078 7.6992188 13.330078 C 7.7355927 13.164921 7.7988218 13.087248 7.875 13.072266 z M 27.466797 15.761719 C 27.951797 15.757719 28.506813 15.866578 29.132812 16.142578 C 31.994813 17.408578 31.637437 18.478734 33.398438 19.552734 C 35.160438 20.626734 35.792969 20.738281 35.792969 20.738281 L 35.875 22.664062 C 35.875 22.664062 33.755359 22.607719 31.443359 21.011719 C 29.131359 19.415719 28.721469 18.672422 27.730469 18.232422 C 26.739469 17.792422 24.894531 17.1875 24.894531 17.1875 C 24.894531 17.1875 25.734797 15.775719 27.466797 15.761719 z M 35.335938 16.904297 C 36.141937 16.878297 36.5625 17.654297 36.5625 17.654297 C 36.5625 17.654297 35.84625 17.680359 35.40625 17.818359 C 34.96625 17.956359 34.664062 18.150391 34.664062 18.150391 C 34.664062 18.150391 33.919844 17.296797 34.964844 16.966797 C 35.095844 16.925797 35.220937 16.908297 35.335938 16.904297 z M 37.126953 21.748047 C 37.150953 21.746047 37.174219 21.747047 37.199219 21.748047 C 37.319219 21.751047 37.445453 21.781609 37.564453 21.849609 C 37.881453 22.030609 38.021906 22.383766 37.878906 22.634766 C 37.735906 22.885766 37.360922 22.940766 37.044922 22.759766 C 36.727922 22.578766 36.589422 22.231469 36.732422 21.980469 C 36.810422 21.843469 36.957953 21.762047 37.126953 21.748047 z"/></svg>